<svg width="320" height="150" viewBox="0 0 320 150" fill="none" xmlns="http://www.w3.org/2000/svg">
<path d="M128.215 69.9975V55.2377H138.27V57.9123H131.271V61.6568H137.285V64.3314H131.271V69.9975H128.215Z" fill="#313131"/>
<path d="M139.787 69.9975V55.2377H142.843V67.3229H149.053V69.9975H139.787Z" fill="#313131"/>
<path d="M149.484 69.9975L154.453 55.2377H158.514L163.482 69.9975H160.15L159.165 66.9861H153.782L152.796 69.9975H149.484ZM154.63 64.3115H158.317L156.069 57.3378H156.897L154.63 64.3115Z" fill="#313131"/>
<path d="M168.162 69.9975L163.135 55.2377H166.486L170.272 67.0852H169.602L173.387 55.2377H176.739L171.711 69.9975H168.162Z" fill="#313131"/>
<path d="M185.224 70.2353C184.12 70.2353 183.094 70.0438 182.148 69.6607C181.202 69.2777 180.374 68.7428 179.664 68.056C178.967 67.356 178.422 66.5437 178.028 65.6191C177.633 64.6946 177.436 63.6908 177.436 62.6077C177.436 61.5247 177.627 60.5209 178.008 59.5963C178.402 58.6718 178.948 57.8661 179.644 57.1793C180.354 56.4925 181.182 55.9576 182.128 55.5745C183.075 55.1915 184.107 55 185.224 55C186.341 55 187.373 55.1915 188.319 55.5745C189.265 55.9576 190.087 56.4925 190.783 57.1793C191.493 57.8661 192.039 58.6718 192.42 59.5963C192.814 60.5209 193.011 61.5247 193.011 62.6077C193.011 63.6908 192.814 64.6946 192.42 65.6191C192.026 66.5437 191.474 67.356 190.764 68.056C190.067 68.7428 189.246 69.2777 188.299 69.6607C187.353 70.0438 186.328 70.2353 185.224 70.2353ZM185.224 67.4616C185.894 67.4616 186.512 67.3427 187.077 67.105C187.655 66.8673 188.161 66.5371 188.595 66.1144C189.029 65.6786 189.364 65.1634 189.601 64.5691C189.837 63.9747 189.955 63.321 189.955 62.6077C189.955 61.8945 189.837 61.2473 189.601 60.6662C189.364 60.0718 189.029 59.5567 188.595 59.1209C188.161 58.685 187.655 58.3548 187.077 58.1303C186.512 57.8925 185.894 57.7736 185.224 57.7736C184.553 57.7736 183.929 57.8925 183.351 58.1303C182.786 58.3548 182.286 58.685 181.852 59.1209C181.419 59.5567 181.083 60.0718 180.847 60.6662C180.61 61.2473 180.492 61.8945 180.492 62.6077C180.492 63.321 180.61 63.9747 180.847 64.5691C181.083 65.1634 181.419 65.6786 181.852 66.1144C182.286 66.5371 182.786 66.8673 183.351 67.105C183.929 67.3427 184.553 67.4616 185.224 67.4616Z" fill="#313131"/>
<path d="M195.179 69.9975V55.2377H200.798C201.81 55.2377 202.703 55.416 203.479 55.7727C204.267 56.1293 204.885 56.6576 205.332 57.3576C205.779 58.0576 206.002 58.9227 206.002 59.9529C206.002 60.9567 205.772 61.8153 205.312 62.5285C204.852 63.2285 204.235 63.7568 203.459 64.1134L206.811 69.9975H203.38L199.753 63.4794L201.724 64.6483H198.235V69.9975H195.179ZM198.235 61.9737H200.817C201.251 61.9737 201.626 61.8879 201.941 61.7162C202.256 61.5445 202.5 61.3068 202.671 61.003C202.855 60.6992 202.947 60.3492 202.947 59.9529C202.947 59.5435 202.855 59.1869 202.671 58.8831C202.5 58.5793 202.256 58.3416 201.941 58.1699C201.626 57.9982 201.251 57.9123 200.817 57.9123H198.235V61.9737Z" fill="#313131"/>
<path d="M213.672 70.2353C212.752 70.2353 211.884 70.0702 211.069 69.74C210.267 69.3966 209.571 68.9145 208.979 68.2937C208.401 67.6729 207.967 66.9399 207.678 66.0946L210.182 64.9653C210.55 65.771 211.056 66.405 211.7 66.8673C212.357 67.3295 213.08 67.5607 213.869 67.5607C214.289 67.5607 214.651 67.4946 214.953 67.3626C215.255 67.2305 215.492 67.0522 215.663 66.8276C215.834 66.5899 215.919 66.3125 215.919 65.9955C215.919 65.6521 215.814 65.3616 215.604 65.1238C215.393 64.8729 215.065 64.6748 214.618 64.5295L211.739 63.5785C210.57 63.1955 209.689 62.654 209.098 61.9539C208.506 61.2407 208.21 60.3888 208.21 59.3982C208.21 58.5265 208.421 57.7604 208.841 57.1C209.275 56.4397 209.873 55.9245 210.635 55.5547C211.411 55.1849 212.298 55 213.297 55C214.178 55 214.993 55.1519 215.742 55.4557C216.491 55.7595 217.135 56.1887 217.674 56.7434C218.226 57.2982 218.64 57.9652 218.916 58.7444L216.432 59.8737C216.156 59.1869 215.742 58.652 215.19 58.2689C214.638 57.8727 214.007 57.6746 213.297 57.6746C212.89 57.6746 212.528 57.7406 212.213 57.8727C211.897 58.0048 211.654 58.1963 211.483 58.4473C211.312 58.685 211.227 58.9624 211.227 59.2793C211.227 59.6228 211.339 59.9265 211.562 60.1907C211.785 60.4416 212.121 60.6398 212.568 60.785L215.387 61.6964C216.57 62.0794 217.45 62.6143 218.029 63.3011C218.62 63.9879 218.916 64.8266 218.916 65.8172C218.916 66.6757 218.692 67.4418 218.246 68.1154C217.799 68.7758 217.181 69.2975 216.392 69.6805C215.617 70.0504 214.71 70.2353 213.672 70.2353Z" fill="#313131"/>
<path d="M231.99 70.2353C230.886 70.2353 229.861 70.0438 228.915 69.6607C227.968 69.2777 227.14 68.7428 226.43 68.056C225.734 67.356 225.188 66.5437 224.794 65.6191C224.4 64.6946 224.203 63.6908 224.203 62.6077C224.203 61.5247 224.393 60.5209 224.774 59.5963C225.169 58.6718 225.714 57.8661 226.411 57.1793C227.12 56.4925 227.949 55.9576 228.895 55.5745C229.841 55.1915 230.873 55 231.99 55C233.107 55 234.139 55.1915 235.086 55.5745C236.032 55.9576 236.853 56.4925 237.55 57.1793C238.26 57.8661 238.805 58.6718 239.186 59.5963C239.581 60.5209 239.778 61.5247 239.778 62.6077C239.778 63.6908 239.581 64.6946 239.186 65.6191C238.792 66.5437 238.24 67.356 237.53 68.056C236.834 68.7428 236.012 69.2777 235.066 69.6607C234.119 70.0438 233.094 70.2353 231.99 70.2353ZM231.99 67.4616C232.661 67.4616 233.278 67.3427 233.843 67.105C234.422 66.8673 234.928 66.5371 235.362 66.1144C235.795 65.6786 236.13 65.1634 236.367 64.5691C236.604 63.9747 236.722 63.321 236.722 62.6077C236.722 61.8945 236.604 61.2473 236.367 60.6662C236.13 60.0718 235.795 59.5567 235.362 59.1209C234.928 58.685 234.422 58.3548 233.843 58.1303C233.278 57.8925 232.661 57.7736 231.99 57.7736C231.32 57.7736 230.696 57.8925 230.117 58.1303C229.552 58.3548 229.053 58.685 228.619 59.1209C228.185 59.5567 227.85 60.0718 227.613 60.6662C227.377 61.2473 227.258 61.8945 227.258 62.6077C227.258 63.321 227.377 63.9747 227.613 64.5691C227.85 65.1634 228.185 65.6786 228.619 66.1144C229.053 66.5371 229.552 66.8673 230.117 67.105C230.696 67.3427 231.32 67.4616 231.99 67.4616Z" fill="#313131"/>
<path d="M241.945 69.9975V55.2377H252V57.9123H245.001V61.6568H251.014V64.3314H245.001V69.9975H241.945Z" fill="#313131"/>
<path d="M127.131 94.7623L132.099 80.0025H136.161L141.129 94.7623H137.797L136.811 91.7509H131.429L130.443 94.7623H127.131ZM132.277 89.0763H135.964L133.716 82.1025H134.544L132.277 89.0763Z" fill="#313131"/>
<path d="M142.655 94.7623V80.0025H145.711V92.0877H151.922V94.7623H142.655Z" fill="#313131"/>
<path d="M160.032 95C158.98 95 158.001 94.8085 157.094 94.4255C156.2 94.0424 155.418 93.5075 154.748 92.8207C154.077 92.1339 153.552 91.3282 153.171 90.4037C152.803 89.4791 152.619 88.4687 152.619 87.3725C152.619 86.2762 152.803 85.2658 153.171 84.3413C153.539 83.4035 154.058 82.5978 154.728 81.9242C155.398 81.2374 156.18 80.7091 157.074 80.3393C157.981 79.9562 158.967 79.7647 160.032 79.7647C161.096 79.7647 162.049 79.943 162.89 80.2997C163.745 80.6563 164.468 81.1317 165.059 81.7261C165.65 82.3205 166.071 82.9808 166.321 83.7073L163.62 85.0149C163.37 84.3016 162.93 83.7139 162.299 83.2516C161.681 82.7761 160.925 82.5384 160.032 82.5384C159.164 82.5384 158.402 82.7431 157.745 83.1525C157.087 83.562 156.575 84.1299 156.207 84.8564C155.852 85.5696 155.674 86.4083 155.674 87.3725C155.674 88.3366 155.852 89.1819 156.207 89.9084C156.575 90.6348 157.087 91.2027 157.745 91.6122C158.402 92.0216 159.164 92.2263 160.032 92.2263C160.925 92.2263 161.681 91.9952 162.299 91.5329C162.93 91.0575 163.37 90.4631 163.62 89.7499L166.321 91.0575C166.071 91.7839 165.65 92.4443 165.059 93.0386C164.468 93.633 163.745 94.1085 162.89 94.4651C162.049 94.8217 161.096 95 160.032 95Z" fill="#313131"/>
<path d="M168.282 94.7623V80.0025H171.338V86.3819H177.055V80.0025H180.111V94.7623H177.055V89.0565H171.338V94.7623H168.282Z" fill="#313131"/>
<path d="M182.722 94.7623V80.0025H192.599V82.6771H185.778V86.0253H192.205V88.6998H185.778V92.0877H192.599V94.7623H182.722Z" fill="#313131"/>
<path d="M194.331 94.7623V80.0025H197.289L202.789 87.3328H201.409L206.752 80.0025H209.71V94.7623H206.654V83.3903L207.876 83.6677L202.218 90.998H201.823L196.362 83.6677L197.387 83.3903V94.7623H194.331Z" fill="#313131"/>
<path d="M216.119 94.7623V88.3234L211.23 80.0025H214.719L218.268 86.263H217.026L220.555 80.0025H224.045L219.175 88.3036V94.7623H216.119Z" fill="#313131"/>
<path d="M69 56.8243V55.2765H83.3863V56.8243C80.0193 56.8243 78.1828 57.4434 79.4071 58.6817L89.8143 69.2067V60.8486C89.8143 58.3721 88.2838 56.8243 84.3046 56.8243V55.2765H93.1813V94.9001H83.9985V93.6619H86.7533C88.5899 93.6619 89.8143 91.8045 89.8143 90.5663V80.3508L78.4889 91.8045C77.5706 92.7332 80.6315 93.6619 81.5498 93.6619H83.0802V94.9001H69.3061V93.6619C71.7548 93.6619 72.0609 92.7332 73.2853 91.8045L87.0594 78.1839H78.1828C75.734 78.1839 74.8157 79.7317 74.8157 84.0655H73.2853V66.4207H74.5097C74.5097 69.8258 75.734 71.9927 78.1828 71.9927H87.6716L76.6523 60.8486C73.308 57.3488 72.367 56.8243 69 56.8243Z" fill="#313131"/>
<path d="M117.056 56.8243V55.2765H102.67V56.8243C106.037 56.8243 107.874 57.4434 106.649 58.6817L96.2422 69.2067V60.8486C96.2422 58.3721 97.7726 56.8243 101.752 56.8243V55.2765H92.8752V94.9001H102.058V93.6619H99.3031C97.4666 93.6619 96.2422 91.8045 96.2422 90.5663V80.3508L107.568 91.8045C108.486 92.7332 105.425 93.6619 104.507 93.6619H102.976V94.9001H116.75V93.6619C114.302 93.6619 113.996 92.7332 112.771 91.8045L98.997 78.1839H107.874C110.322 78.1839 111.241 79.7317 111.241 84.0655H112.771V66.4207H111.547C111.547 69.8258 110.322 71.9927 107.874 71.9927H98.3848L109.404 60.8486C112.748 57.3488 113.689 56.8243 117.056 56.8243Z" fill="#313131"/>
</svg>
