<svg width="320" height="150" viewBox="0 0 320 150" fill="none" xmlns="http://www.w3.org/2000/svg">
<path d="M113.669 68.6216V48.3269H127.484V52.0045H117.868V57.153H126.13V60.8306H117.868V68.6216H113.669Z" fill="#313131"/>
<path d="M130.652 68.6216V48.3269H134.85V64.944H143.383V68.6216H130.652Z" fill="#313131"/>
<path d="M146.143 68.6216L152.97 48.3269H158.55L165.376 68.6216H160.798L159.444 64.4809H152.049L150.694 68.6216H146.143ZM153.213 60.8034H158.279L155.191 51.2145H156.329L153.213 60.8034Z" fill="#313131"/>
<path d="M170.723 68.6216L163.816 48.3269H168.421L173.622 64.6171H172.701L177.902 48.3269H182.507L175.599 68.6216H170.723Z" fill="#313131"/>
<path d="M194.166 68.9485C192.649 68.9485 191.24 68.6852 189.94 68.1585C188.64 67.6318 187.502 66.8963 186.527 65.952C185.569 64.9894 184.82 63.8725 184.278 62.6013C183.736 61.33 183.466 59.9498 183.466 58.4606C183.466 56.9714 183.727 55.5912 184.251 54.32C184.793 53.0487 185.542 51.9409 186.499 50.9965C187.475 50.0522 188.612 49.3167 189.913 48.79C191.213 48.2633 192.631 48 194.166 48C195.701 48 197.118 48.2633 198.419 48.79C199.719 49.3167 200.848 50.0522 201.805 50.9965C202.78 51.9409 203.529 53.0487 204.053 54.32C204.595 55.5912 204.866 56.9714 204.866 58.4606C204.866 59.9498 204.595 61.33 204.053 62.6013C203.511 63.8725 202.753 64.9894 201.778 65.952C200.821 66.8963 199.692 67.6318 198.392 68.1585C197.091 68.6852 195.683 68.9485 194.166 68.9485ZM194.166 65.1347C195.087 65.1347 195.936 64.9713 196.712 64.6444C197.507 64.3175 198.202 63.8635 198.798 63.2823C199.394 62.683 199.854 61.9747 200.179 61.1575C200.505 60.3403 200.667 59.4413 200.667 58.4606C200.667 57.4799 200.505 56.5901 200.179 55.791C199.854 54.9737 199.394 54.2655 198.798 53.6662C198.202 53.0669 197.507 52.6128 196.712 52.3041C195.936 51.9772 195.087 51.8138 194.166 51.8138C193.245 51.8138 192.387 51.9772 191.592 52.3041C190.816 52.6128 190.129 53.0669 189.533 53.6662C188.938 54.2655 188.477 54.9737 188.152 55.791C187.827 56.5901 187.664 57.4799 187.664 58.4606C187.664 59.4413 187.827 60.3403 188.152 61.1575C188.477 61.9747 188.938 62.683 189.533 63.2823C190.129 63.8635 190.816 64.3175 191.592 64.6444C192.387 64.9713 193.245 65.1347 194.166 65.1347Z" fill="#313131"/>
<path d="M207.844 68.6216V48.3269H215.564C216.955 48.3269 218.183 48.5721 219.248 49.0624C220.332 49.5527 221.181 50.2792 221.795 51.2417C222.409 52.2042 222.716 53.3938 222.716 54.8103C222.716 56.1905 222.4 57.371 221.768 58.3517C221.135 59.3142 220.287 60.0406 219.221 60.531L223.826 68.6216H219.113L214.128 59.6592L216.837 61.2665H212.043V68.6216H207.844ZM212.043 57.5889H215.591C216.187 57.5889 216.702 57.4709 217.135 57.2348C217.569 56.9987 217.903 56.6718 218.138 56.2541C218.39 55.8364 218.517 55.3551 218.517 54.8103C218.517 54.2473 218.39 53.757 218.138 53.3393C217.903 52.9216 217.569 52.5947 217.135 52.3586C216.702 52.1225 216.187 52.0045 215.591 52.0045H212.043V57.5889Z" fill="#313131"/>
<path d="M233.795 68.9485C232.531 68.9485 231.339 68.7215 230.219 68.2675C229.118 67.7953 228.16 67.1324 227.348 66.2789C226.553 65.4253 225.957 64.4174 225.56 63.2551L229 61.7023C229.506 62.8101 230.201 63.6819 231.086 64.3175C231.989 64.9531 232.982 65.2709 234.066 65.2709C234.644 65.2709 235.14 65.1801 235.556 64.9985C235.971 64.8169 236.296 64.5717 236.531 64.263C236.766 63.9361 236.883 63.5547 236.883 63.1189C236.883 62.6467 236.739 62.2472 236.45 61.9203C236.161 61.5752 235.709 61.3028 235.095 61.103L231.14 59.7954C229.533 59.2688 228.323 58.5242 227.51 57.5617C226.698 56.581 226.291 55.4096 226.291 54.0475C226.291 52.8489 226.58 51.7956 227.158 50.8876C227.754 49.9795 228.576 49.2713 229.623 48.7628C230.689 48.2543 231.908 48 233.28 48C234.49 48 235.61 48.2088 236.639 48.6265C237.669 49.0442 238.554 49.6345 239.294 50.3972C240.052 51.16 240.621 52.0771 241.001 53.1486L237.587 54.7013C237.208 53.757 236.639 53.0215 235.881 52.4948C235.122 51.95 234.255 51.6776 233.28 51.6776C232.72 51.6776 232.224 51.7684 231.79 51.95C231.357 52.1316 231.023 52.3949 230.788 52.74C230.553 53.0669 230.436 53.4482 230.436 53.8841C230.436 54.3563 230.589 54.774 230.896 55.1372C231.203 55.4823 231.664 55.7547 232.278 55.9544L236.152 57.2075C237.777 57.7342 238.987 58.4697 239.782 59.4141C240.594 60.3584 241.001 61.5116 241.001 62.8737C241.001 64.0542 240.694 65.1075 240.08 66.0337C239.466 66.9417 238.617 67.6591 237.533 68.1857C236.468 68.6942 235.222 68.9485 233.795 68.9485Z" fill="#313131"/>
<path d="M258.965 68.9485C257.448 68.9485 256.039 68.6852 254.739 68.1585C253.439 67.6318 252.301 66.8963 251.326 65.952C250.368 64.9894 249.619 63.8725 249.077 62.6013C248.535 61.33 248.265 59.9498 248.265 58.4606C248.265 56.9714 248.526 55.5912 249.05 54.32C249.592 53.0487 250.341 51.9409 251.298 50.9965C252.274 50.0522 253.411 49.3167 254.712 48.79C256.012 48.2633 257.43 48 258.965 48C260.5 48 261.917 48.2633 263.218 48.79C264.518 49.3167 265.647 50.0522 266.604 50.9965C267.579 51.9409 268.329 53.0487 268.852 54.32C269.394 55.5912 269.665 56.9714 269.665 58.4606C269.665 59.9498 269.394 61.33 268.852 62.6013C268.31 63.8725 267.552 64.9894 266.577 65.952C265.62 66.8963 264.491 67.6318 263.191 68.1585C261.89 68.6852 260.482 68.9485 258.965 68.9485ZM258.965 65.1347C259.886 65.1347 260.735 64.9713 261.511 64.6444C262.306 64.3175 263.001 63.8635 263.597 63.2823C264.193 62.683 264.653 61.9747 264.978 61.1575C265.304 60.3403 265.466 59.4413 265.466 58.4606C265.466 57.4799 265.304 56.5901 264.978 55.791C264.653 54.9737 264.193 54.2655 263.597 53.6662C263.001 53.0669 262.306 52.6128 261.511 52.3041C260.735 51.9772 259.886 51.8138 258.965 51.8138C258.044 51.8138 257.186 51.9772 256.391 52.3041C255.615 52.6128 254.928 53.0669 254.332 53.6662C253.737 54.2655 253.276 54.9737 252.951 55.791C252.626 56.5901 252.463 57.4799 252.463 58.4606C252.463 59.4413 252.626 60.3403 252.951 61.1575C253.276 61.9747 253.737 62.683 254.332 63.2823C254.928 63.8635 255.615 64.3175 256.391 64.6444C257.186 64.9713 258.044 65.1347 258.965 65.1347Z" fill="#313131"/>
<path d="M273.185 68.6216V48.3269H287V52.0045H277.383V57.153H285.646V60.8306H277.383V68.6216H273.185Z" fill="#313131"/>
<path d="M112.179 102.673L119.006 82.3784H124.586L131.412 102.673H126.834L125.48 98.5324H118.085L116.73 102.673H112.179ZM119.249 94.8549H124.315L121.227 85.266H122.365L119.249 94.8549Z" fill="#313131"/>
<path d="M133.51 102.673V82.3784H137.708V98.9955H146.242V102.673H133.51Z" fill="#313131"/>
<path d="M157.384 103C155.94 103 154.594 102.737 153.348 102.21C152.12 101.683 151.046 100.948 150.125 100.003C149.204 99.0591 148.481 97.9513 147.957 96.68C147.452 95.4088 147.199 94.0195 147.199 92.5121C147.199 91.0048 147.452 89.6155 147.957 88.3442C148.463 87.0548 149.176 85.947 150.097 85.0208C151.019 84.0764 152.093 83.35 153.321 82.8415C154.567 82.3148 155.922 82.0515 157.384 82.0515C158.847 82.0515 160.157 82.2967 161.312 82.787C162.486 83.2774 163.479 83.9312 164.292 84.7484C165.105 85.5656 165.683 86.4737 166.026 87.4725L162.315 89.2704C161.972 88.2897 161.367 87.4816 160.5 86.846C159.651 86.1922 158.612 85.8653 157.384 85.8653C156.193 85.8653 155.145 86.1468 154.242 86.7098C153.339 87.2727 152.635 88.0537 152.129 89.0525C151.642 90.0332 151.398 91.1864 151.398 92.5121C151.398 93.8379 151.642 95.0002 152.129 95.999C152.635 96.9979 153.339 97.7788 154.242 98.3418C155.145 98.9047 156.193 99.1862 157.384 99.1862C158.612 99.1862 159.651 98.8684 160.5 98.2328C161.367 97.579 161.972 96.7618 162.315 95.7811L166.026 97.579C165.683 98.5778 165.105 99.4859 164.292 100.303C163.479 101.12 162.486 101.774 161.312 102.264C160.157 102.755 158.847 103 157.384 103Z" fill="#313131"/>
<path d="M168.72 102.673V82.3784H172.919V91.1501H180.775V82.3784H184.974V102.673H180.775V94.8276H172.919V102.673H168.72Z" fill="#313131"/>
<path d="M188.561 102.673V82.3784H202.132V86.056H192.76V90.6597H201.591V94.3373H192.76V98.9955H202.132V102.673H188.561Z" fill="#313131"/>
<path d="M205.596 102.673V82.3784H209.66L217.217 92.4576H215.321L222.662 82.3784H226.726V102.673H222.527V87.0367L224.206 87.418L216.432 97.4973H215.89L208.386 87.418L209.795 87.0367V102.673H205.596Z" fill="#313131"/>
<path d="M236.616 102.673V93.8197L229.898 82.3784H234.693L239.569 90.9866H237.862L242.711 82.3784H247.506L240.815 93.7925V102.673H236.616Z" fill="#313131"/>
<path d="M34 50.3189V48.1907H53.7668V50.3189C49.1406 50.3189 46.6171 51.1702 48.2994 52.8728L62.5988 67.3447V55.8523C62.5988 52.4471 60.496 50.3189 55.0286 50.3189V48.1907H67.2251V102.673H54.608V100.971H58.3931C60.9165 100.971 62.5988 98.4167 62.5988 96.7141V82.6678L47.0377 98.4167C45.776 99.6936 49.9817 100.971 51.2434 100.971H53.3463V102.673H34.4206V100.971C37.7851 100.971 38.2057 99.6936 39.888 98.4167L58.8137 79.6883H46.6171C43.2526 79.6883 41.9908 81.8166 41.9908 87.7756H39.888V63.5139H41.5703C41.5703 68.196 43.2526 71.1755 46.6171 71.1755H59.6548L44.5143 55.8523C39.9192 51.0401 38.6263 50.3189 34 50.3189Z" fill="#313131"/>
<path d="M100.03 50.3189V48.1907H80.2628V50.3189C84.8891 50.3189 87.4125 51.1702 85.7302 52.8728L71.4308 67.3447V55.8523C71.4308 52.4471 73.5337 50.3189 79.0011 50.3189V48.1907H66.8045V102.673H79.4217V100.971H75.6365C73.1131 100.971 71.4308 98.4167 71.4308 96.7141V82.6678L86.9919 98.4167C88.2537 99.6936 84.048 100.971 82.7862 100.971H80.6834V102.673H99.6091V100.971C96.2445 100.971 95.8239 99.6936 94.1417 98.4167L75.216 79.6883H87.4125C90.7771 79.6883 92.0388 81.8166 92.0388 87.7756H94.1417V63.5139H92.4594C92.4594 68.196 90.7771 71.1755 87.4125 71.1755H74.3748L89.5154 55.8523C94.1104 51.0401 95.4034 50.3189 100.03 50.3189Z" fill="#313131"/>
<path d="M113.669 68.6216V48.3269H127.484V52.0045H117.868V57.153H126.13V60.8306H117.868V68.6216H113.669Z" stroke="#313131"/>
<path d="M130.652 68.6216V48.3269H134.85V64.944H143.383V68.6216H130.652Z" stroke="#313131"/>
<path d="M146.143 68.6216L152.97 48.3269H158.55L165.376 68.6216H160.798L159.444 64.4809H152.049L150.694 68.6216H146.143ZM153.213 60.8034H158.279L155.191 51.2145H156.329L153.213 60.8034Z" stroke="#313131"/>
<path d="M170.723 68.6216L163.816 48.3269H168.421L173.622 64.6171H172.701L177.902 48.3269H182.507L175.599 68.6216H170.723Z" stroke="#313131"/>
<path d="M194.166 68.9485C192.649 68.9485 191.24 68.6852 189.94 68.1585C188.64 67.6318 187.502 66.8963 186.527 65.952C185.569 64.9894 184.82 63.8725 184.278 62.6013C183.736 61.33 183.466 59.9498 183.466 58.4606C183.466 56.9714 183.727 55.5912 184.251 54.32C184.793 53.0487 185.542 51.9409 186.499 50.9965C187.475 50.0522 188.612 49.3167 189.913 48.79C191.213 48.2633 192.631 48 194.166 48C195.701 48 197.118 48.2633 198.419 48.79C199.719 49.3167 200.848 50.0522 201.805 50.9965C202.78 51.9409 203.529 53.0487 204.053 54.32C204.595 55.5912 204.866 56.9714 204.866 58.4606C204.866 59.9498 204.595 61.33 204.053 62.6013C203.511 63.8725 202.753 64.9894 201.778 65.952C200.821 66.8963 199.692 67.6318 198.392 68.1585C197.091 68.6852 195.683 68.9485 194.166 68.9485ZM194.166 65.1347C195.087 65.1347 195.936 64.9713 196.712 64.6444C197.507 64.3175 198.202 63.8635 198.798 63.2823C199.394 62.683 199.854 61.9747 200.179 61.1575C200.505 60.3403 200.667 59.4413 200.667 58.4606C200.667 57.4799 200.505 56.5901 200.179 55.791C199.854 54.9737 199.394 54.2655 198.798 53.6662C198.202 53.0669 197.507 52.6128 196.712 52.3041C195.936 51.9772 195.087 51.8138 194.166 51.8138C193.245 51.8138 192.387 51.9772 191.592 52.3041C190.816 52.6128 190.129 53.0669 189.533 53.6662C188.938 54.2655 188.477 54.9737 188.152 55.791C187.827 56.5901 187.664 57.4799 187.664 58.4606C187.664 59.4413 187.827 60.3403 188.152 61.1575C188.477 61.9747 188.938 62.683 189.533 63.2823C190.129 63.8635 190.816 64.3175 191.592 64.6444C192.387 64.9713 193.245 65.1347 194.166 65.1347Z" stroke="#313131"/>
<path d="M207.844 68.6216V48.3269H215.564C216.955 48.3269 218.183 48.5721 219.248 49.0624C220.332 49.5527 221.181 50.2792 221.795 51.2417C222.409 52.2042 222.716 53.3938 222.716 54.8103C222.716 56.1905 222.4 57.371 221.768 58.3517C221.135 59.3142 220.287 60.0406 219.221 60.531L223.826 68.6216H219.113L214.128 59.6592L216.837 61.2665H212.043V68.6216H207.844ZM212.043 57.5889H215.591C216.187 57.5889 216.702 57.4709 217.135 57.2348C217.569 56.9987 217.903 56.6718 218.138 56.2541C218.39 55.8364 218.517 55.3551 218.517 54.8103C218.517 54.2473 218.39 53.757 218.138 53.3393C217.903 52.9216 217.569 52.5947 217.135 52.3586C216.702 52.1225 216.187 52.0045 215.591 52.0045H212.043V57.5889Z" stroke="#313131"/>
<path d="M233.795 68.9485C232.531 68.9485 231.339 68.7215 230.219 68.2675C229.118 67.7953 228.16 67.1324 227.348 66.2789C226.553 65.4253 225.957 64.4174 225.56 63.2551L229 61.7023C229.506 62.8101 230.201 63.6819 231.086 64.3175C231.989 64.9531 232.982 65.2709 234.066 65.2709C234.644 65.2709 235.14 65.1801 235.556 64.9985C235.971 64.8169 236.296 64.5717 236.531 64.263C236.766 63.9361 236.883 63.5547 236.883 63.1189C236.883 62.6467 236.739 62.2472 236.45 61.9203C236.161 61.5752 235.709 61.3028 235.095 61.103L231.14 59.7954C229.533 59.2688 228.323 58.5242 227.51 57.5617C226.698 56.581 226.291 55.4096 226.291 54.0475C226.291 52.8489 226.58 51.7956 227.158 50.8876C227.754 49.9795 228.576 49.2713 229.623 48.7628C230.689 48.2543 231.908 48 233.28 48C234.49 48 235.61 48.2088 236.639 48.6265C237.669 49.0442 238.554 49.6345 239.294 50.3972C240.052 51.16 240.621 52.0771 241.001 53.1486L237.587 54.7013C237.208 53.757 236.639 53.0215 235.881 52.4948C235.122 51.95 234.255 51.6776 233.28 51.6776C232.72 51.6776 232.224 51.7684 231.79 51.95C231.357 52.1316 231.023 52.3949 230.788 52.74C230.553 53.0669 230.436 53.4482 230.436 53.8841C230.436 54.3563 230.589 54.774 230.896 55.1372C231.203 55.4823 231.664 55.7547 232.278 55.9544L236.152 57.2075C237.777 57.7342 238.987 58.4697 239.782 59.4141C240.594 60.3584 241.001 61.5116 241.001 62.8737C241.001 64.0542 240.694 65.1075 240.08 66.0337C239.466 66.9417 238.617 67.6591 237.533 68.1857C236.468 68.6942 235.222 68.9485 233.795 68.9485Z" stroke="#313131"/>
<path d="M258.965 68.9485C257.448 68.9485 256.039 68.6852 254.739 68.1585C253.439 67.6318 252.301 66.8963 251.326 65.952C250.368 64.9894 249.619 63.8725 249.077 62.6013C248.535 61.33 248.265 59.9498 248.265 58.4606C248.265 56.9714 248.526 55.5912 249.05 54.32C249.592 53.0487 250.341 51.9409 251.298 50.9965C252.274 50.0522 253.411 49.3167 254.712 48.79C256.012 48.2633 257.43 48 258.965 48C260.5 48 261.917 48.2633 263.218 48.79C264.518 49.3167 265.647 50.0522 266.604 50.9965C267.579 51.9409 268.329 53.0487 268.852 54.32C269.394 55.5912 269.665 56.9714 269.665 58.4606C269.665 59.9498 269.394 61.33 268.852 62.6013C268.31 63.8725 267.552 64.9894 266.577 65.952C265.62 66.8963 264.491 67.6318 263.191 68.1585C261.89 68.6852 260.482 68.9485 258.965 68.9485ZM258.965 65.1347C259.886 65.1347 260.735 64.9713 261.511 64.6444C262.306 64.3175 263.001 63.8635 263.597 63.2823C264.193 62.683 264.653 61.9747 264.978 61.1575C265.304 60.3403 265.466 59.4413 265.466 58.4606C265.466 57.4799 265.304 56.5901 264.978 55.791C264.653 54.9737 264.193 54.2655 263.597 53.6662C263.001 53.0669 262.306 52.6128 261.511 52.3041C260.735 51.9772 259.886 51.8138 258.965 51.8138C258.044 51.8138 257.186 51.9772 256.391 52.3041C255.615 52.6128 254.928 53.0669 254.332 53.6662C253.737 54.2655 253.276 54.9737 252.951 55.791C252.626 56.5901 252.463 57.4799 252.463 58.4606C252.463 59.4413 252.626 60.3403 252.951 61.1575C253.276 61.9747 253.737 62.683 254.332 63.2823C254.928 63.8635 255.615 64.3175 256.391 64.6444C257.186 64.9713 258.044 65.1347 258.965 65.1347Z" stroke="#313131"/>
<path d="M273.185 68.6216V48.3269H287V52.0045H277.383V57.153H285.646V60.8306H277.383V68.6216H273.185Z" stroke="#313131"/>
<path d="M112.179 102.673L119.006 82.3784H124.586L131.412 102.673H126.834L125.48 98.5324H118.085L116.73 102.673H112.179ZM119.249 94.8549H124.315L121.227 85.266H122.365L119.249 94.8549Z" stroke="#313131"/>
<path d="M133.51 102.673V82.3784H137.708V98.9955H146.242V102.673H133.51Z" stroke="#313131"/>
<path d="M157.384 103C155.94 103 154.594 102.737 153.348 102.21C152.12 101.683 151.046 100.948 150.125 100.003C149.204 99.0591 148.481 97.9513 147.957 96.68C147.452 95.4088 147.199 94.0195 147.199 92.5121C147.199 91.0048 147.452 89.6155 147.957 88.3442C148.463 87.0548 149.176 85.947 150.097 85.0208C151.019 84.0764 152.093 83.35 153.321 82.8415C154.567 82.3148 155.922 82.0515 157.384 82.0515C158.847 82.0515 160.157 82.2967 161.312 82.787C162.486 83.2774 163.479 83.9312 164.292 84.7484C165.105 85.5656 165.683 86.4737 166.026 87.4725L162.315 89.2704C161.972 88.2897 161.367 87.4816 160.5 86.846C159.651 86.1922 158.612 85.8653 157.384 85.8653C156.193 85.8653 155.145 86.1468 154.242 86.7098C153.339 87.2727 152.635 88.0537 152.129 89.0525C151.642 90.0332 151.398 91.1864 151.398 92.5121C151.398 93.8379 151.642 95.0002 152.129 95.999C152.635 96.9979 153.339 97.7788 154.242 98.3418C155.145 98.9047 156.193 99.1862 157.384 99.1862C158.612 99.1862 159.651 98.8684 160.5 98.2328C161.367 97.579 161.972 96.7618 162.315 95.7811L166.026 97.579C165.683 98.5778 165.105 99.4859 164.292 100.303C163.479 101.12 162.486 101.774 161.312 102.264C160.157 102.755 158.847 103 157.384 103Z" stroke="#313131"/>
<path d="M168.72 102.673V82.3784H172.919V91.1501H180.775V82.3784H184.974V102.673H180.775V94.8276H172.919V102.673H168.72Z" stroke="#313131"/>
<path d="M188.561 102.673V82.3784H202.132V86.056H192.76V90.6597H201.591V94.3373H192.76V98.9955H202.132V102.673H188.561Z" stroke="#313131"/>
<path d="M205.596 102.673V82.3784H209.66L217.217 92.4576H215.321L222.662 82.3784H226.726V102.673H222.527V87.0367L224.206 87.418L216.432 97.4973H215.89L208.386 87.418L209.795 87.0367V102.673H205.596Z" stroke="#313131"/>
<path d="M236.616 102.673V93.8197L229.898 82.3784H234.693L239.569 90.9866H237.862L242.711 82.3784H247.506L240.815 93.7925V102.673H236.616Z" stroke="#313131"/>
<path d="M34 50.3189V48.1907H53.7668V50.3189C49.1406 50.3189 46.6171 51.1702 48.2994 52.8728L62.5988 67.3447V55.8523C62.5988 52.4471 60.496 50.3189 55.0286 50.3189V48.1907H67.2251V102.673H54.608V100.971H58.3931C60.9165 100.971 62.5988 98.4167 62.5988 96.7141V82.6678L47.0377 98.4167C45.776 99.6936 49.9817 100.971 51.2434 100.971H53.3463V102.673H34.4206V100.971C37.7851 100.971 38.2057 99.6936 39.888 98.4167L58.8137 79.6883H46.6171C43.2526 79.6883 41.9908 81.8166 41.9908 87.7756H39.888V63.5139H41.5703C41.5703 68.196 43.2526 71.1755 46.6171 71.1755H59.6548L44.5143 55.8523C39.9192 51.0401 38.6263 50.3189 34 50.3189Z" stroke="#313131"/>
<path d="M100.03 50.3189V48.1907H80.2628V50.3189C84.8891 50.3189 87.4125 51.1702 85.7302 52.8728L71.4308 67.3447V55.8523C71.4308 52.4471 73.5337 50.3189 79.0011 50.3189V48.1907H66.8045V102.673H79.4217V100.971H75.6365C73.1131 100.971 71.4308 98.4167 71.4308 96.7141V82.6678L86.9919 98.4167C88.2537 99.6936 84.048 100.971 82.7862 100.971H80.6834V102.673H99.6091V100.971C96.2445 100.971 95.8239 99.6936 94.1417 98.4167L75.216 79.6883H87.4125C90.7771 79.6883 92.0388 81.8166 92.0388 87.7756H94.1417V63.5139H92.4594C92.4594 68.196 90.7771 71.1755 87.4125 71.1755H74.3748L89.5154 55.8523C94.1104 51.0401 95.4034 50.3189 100.03 50.3189Z" stroke="#313131"/>
</svg>
