<svg width="149" height="33" viewBox="0 0 149 33" fill="none" xmlns="http://www.w3.org/2000/svg">
<path d="M48.056 12.112V0.191999H56.216V2.352H50.536V5.376H55.416V7.536H50.536V12.112H48.056Z" fill="#FAFAFA"/>
<path d="M57.4466 12.112V0.191999H59.9266V9.952H64.9666V12.112H57.4466Z" fill="#FAFAFA"/>
<path d="M65.3166 12.112L69.3486 0.191999H72.6446L76.6766 12.112H73.9726L73.1726 9.68H68.8046L68.0046 12.112H65.3166ZM69.4926 7.52H72.4846L70.6606 1.888H71.3326L69.4926 7.52Z" fill="#FAFAFA"/>
<path d="M80.4747 12.112L76.3948 0.191999H79.1148L82.1868 9.76H81.6428L84.7148 0.191999H87.4348L83.3548 12.112H80.4747Z" fill="#FAFAFA"/>
<path d="M94.3209 12.304C93.4249 12.304 92.5929 12.1493 91.8249 11.84C91.0569 11.5307 90.3849 11.0987 89.8089 10.544C89.2435 9.97867 88.8009 9.32267 88.4809 8.576C88.1609 7.82933 88.0009 7.01867 88.0009 6.144C88.0009 5.26933 88.1555 4.45867 88.4649 3.712C88.7849 2.96533 89.2275 2.31467 89.7929 1.76C90.3689 1.20533 91.0409 0.773333 91.8089 0.464C92.5769 0.154667 93.4142 0 94.3209 0C95.2275 0 96.0649 0.154667 96.8329 0.464C97.6009 0.773333 98.2675 1.20533 98.8329 1.76C99.4089 2.31467 99.8515 2.96533 100.161 3.712C100.481 4.45867 100.641 5.26933 100.641 6.144C100.641 7.01867 100.481 7.82933 100.161 8.576C99.8409 9.32267 99.3929 9.97867 98.8169 10.544C98.2515 11.0987 97.5849 11.5307 96.8169 11.84C96.0489 12.1493 95.2169 12.304 94.3209 12.304ZM94.3209 10.064C94.8649 10.064 95.3662 9.968 95.8249 9.776C96.2942 9.584 96.7049 9.31733 97.0569 8.976C97.4089 8.624 97.6809 8.208 97.8729 7.728C98.0649 7.248 98.1609 6.72 98.1609 6.144C98.1609 5.568 98.0649 5.04533 97.8729 4.576C97.6809 4.096 97.4089 3.68 97.0569 3.328C96.7049 2.976 96.2942 2.70933 95.8249 2.528C95.3662 2.336 94.8649 2.24 94.3209 2.24C93.7769 2.24 93.2702 2.336 92.8009 2.528C92.3422 2.70933 91.9369 2.976 91.5849 3.328C91.2329 3.68 90.9609 4.096 90.7689 4.576C90.5769 5.04533 90.4809 5.568 90.4809 6.144C90.4809 6.72 90.5769 7.248 90.7689 7.728C90.9609 8.208 91.2329 8.624 91.5849 8.976C91.9369 9.31733 92.3422 9.584 92.8009 9.776C93.2702 9.968 93.7769 10.064 94.3209 10.064Z" fill="#FAFAFA"/>
<path d="M102.4 12.112V0.191999H106.96C107.781 0.191999 108.506 0.335999 109.136 0.624C109.776 0.912 110.277 1.33867 110.64 1.904C111.002 2.46933 111.184 3.168 111.184 4C111.184 4.81067 110.997 5.504 110.624 6.08C110.25 6.64533 109.749 7.072 109.12 7.36L111.84 12.112H109.056L106.112 6.848L107.712 7.792H104.88V12.112H102.4ZM104.88 5.632H106.976C107.328 5.632 107.632 5.56267 107.888 5.424C108.144 5.28533 108.341 5.09333 108.48 4.848C108.629 4.60267 108.704 4.32 108.704 4C108.704 3.66933 108.629 3.38133 108.48 3.136C108.341 2.89067 108.144 2.69867 107.888 2.56C107.632 2.42133 107.328 2.352 106.976 2.352H104.88V5.632Z" fill="#FAFAFA"/>
<path d="M117.408 12.304C116.661 12.304 115.957 12.1707 115.296 11.904C114.645 11.6267 114.08 11.2373 113.6 10.736C113.13 10.2347 112.778 9.64267 112.544 8.96L114.576 8.048C114.874 8.69867 115.285 9.21067 115.808 9.584C116.341 9.95733 116.928 10.144 117.568 10.144C117.909 10.144 118.202 10.0907 118.448 9.984C118.693 9.87733 118.885 9.73333 119.024 9.552C119.162 9.36 119.232 9.136 119.232 8.88C119.232 8.60267 119.146 8.368 118.976 8.176C118.805 7.97333 118.538 7.81333 118.176 7.696L115.84 6.928C114.89 6.61867 114.176 6.18133 113.696 5.616C113.216 5.04 112.976 4.352 112.976 3.552C112.976 2.848 113.146 2.22933 113.488 1.696C113.84 1.16267 114.325 0.746667 114.944 0.448C115.573 0.149333 116.293 0 117.104 0C117.818 0 118.48 0.122667 119.088 0.368C119.696 0.613333 120.218 0.96 120.656 1.408C121.104 1.856 121.44 2.39467 121.664 3.024L119.648 3.936C119.424 3.38133 119.088 2.94933 118.64 2.64C118.192 2.32 117.68 2.16 117.104 2.16C116.773 2.16 116.48 2.21333 116.224 2.32C115.968 2.42667 115.77 2.58133 115.632 2.784C115.493 2.976 115.424 3.2 115.424 3.456C115.424 3.73333 115.514 3.97867 115.696 4.192C115.877 4.39467 116.149 4.55467 116.512 4.672L118.8 5.408C119.76 5.71733 120.474 6.14933 120.944 6.704C121.424 7.25867 121.664 7.936 121.664 8.736C121.664 9.42933 121.482 10.048 121.12 10.592C120.757 11.1253 120.256 11.5467 119.616 11.856C118.986 12.1547 118.25 12.304 117.408 12.304Z" fill="#FAFAFA"/>
<path d="M132.274 12.304C131.378 12.304 130.546 12.1493 129.778 11.84C129.01 11.5307 128.338 11.0987 127.762 10.544C127.197 9.97867 126.754 9.32267 126.434 8.576C126.114 7.82933 125.954 7.01867 125.954 6.144C125.954 5.26933 126.109 4.45867 126.418 3.712C126.738 2.96533 127.181 2.31467 127.746 1.76C128.322 1.20533 128.994 0.773333 129.762 0.464C130.53 0.154667 131.367 0 132.274 0C133.181 0 134.018 0.154667 134.786 0.464C135.554 0.773333 136.221 1.20533 136.786 1.76C137.362 2.31467 137.805 2.96533 138.114 3.712C138.434 4.45867 138.594 5.26933 138.594 6.144C138.594 7.01867 138.434 7.82933 138.114 8.576C137.794 9.32267 137.346 9.97867 136.77 10.544C136.205 11.0987 135.538 11.5307 134.77 11.84C134.002 12.1493 133.17 12.304 132.274 12.304ZM132.274 10.064C132.818 10.064 133.319 9.968 133.778 9.776C134.247 9.584 134.658 9.31733 135.01 8.976C135.362 8.624 135.634 8.208 135.826 7.728C136.018 7.248 136.114 6.72 136.114 6.144C136.114 5.568 136.018 5.04533 135.826 4.576C135.634 4.096 135.362 3.68 135.01 3.328C134.658 2.976 134.247 2.70933 133.778 2.528C133.319 2.336 132.818 2.24 132.274 2.24C131.73 2.24 131.223 2.336 130.754 2.528C130.295 2.70933 129.89 2.976 129.538 3.328C129.186 3.68 128.914 4.096 128.722 4.576C128.53 5.04533 128.434 5.568 128.434 6.144C128.434 6.72 128.53 7.248 128.722 7.728C128.914 8.208 129.186 8.624 129.538 8.976C129.89 9.31733 130.295 9.584 130.754 9.776C131.223 9.968 131.73 10.064 132.274 10.064Z" fill="#FAFAFA"/>
<path d="M140.353 12.112V0.191999H148.513V2.352H142.833V5.376H147.713V7.536H142.833V12.112H140.353Z" fill="#FAFAFA"/>
<path d="M47.176 32.112L51.208 20.192H54.504L58.536 32.112H55.832L55.032 29.68H50.664L49.864 32.112H47.176ZM51.352 27.52H54.344L52.52 21.888H53.192L51.352 27.52Z" fill="#FAFAFA"/>
<path d="M59.7747 32.112V20.192H62.2547V29.952H67.2948V32.112H59.7747Z" fill="#FAFAFA"/>
<path d="M73.8763 32.304C73.0229 32.304 72.2282 32.1493 71.4922 31.84C70.7669 31.5307 70.1322 31.0987 69.5882 30.544C69.0442 29.9893 68.6176 29.3387 68.3083 28.592C68.0096 27.8453 67.8603 27.0293 67.8603 26.144C67.8603 25.2587 68.0096 24.4427 68.3083 23.696C68.6069 22.9387 69.0283 22.288 69.5723 21.744C70.1163 21.1893 70.7509 20.7627 71.4762 20.464C72.2122 20.1547 73.0123 20 73.8763 20C74.7403 20 75.5136 20.144 76.1963 20.432C76.8896 20.72 77.4763 21.104 77.9563 21.584C78.4363 22.064 78.7776 22.5973 78.9802 23.184L76.7883 24.24C76.5856 23.664 76.2282 23.1893 75.7162 22.816C75.2149 22.432 74.6016 22.24 73.8763 22.24C73.1723 22.24 72.5536 22.4053 72.0202 22.736C71.4869 23.0667 71.0709 23.5253 70.7722 24.112C70.4842 24.688 70.3402 25.3653 70.3402 26.144C70.3402 26.9227 70.4842 27.6053 70.7722 28.192C71.0709 28.7787 71.4869 29.2373 72.0202 29.568C72.5536 29.8987 73.1723 30.064 73.8763 30.064C74.6016 30.064 75.2149 29.8773 75.7162 29.504C76.2282 29.12 76.5856 28.64 76.7883 28.064L78.9802 29.12C78.7776 29.7067 78.4363 30.24 77.9563 30.72C77.4763 31.2 76.8896 31.584 76.1963 31.872C75.5136 32.16 74.7403 32.304 73.8763 32.304Z" fill="#FAFAFA"/>
<path d="M80.5716 32.112V20.192H83.0516V25.344H87.6916V20.192H90.1716V32.112H87.6916V27.504H83.0516V32.112H80.5716Z" fill="#FAFAFA"/>
<path d="M92.2904 32.112V20.192H100.306V22.352H94.7704V25.056H99.9864V27.216H94.7704V29.952H100.306V32.112H92.2904Z" fill="#FAFAFA"/>
<path d="M101.712 32.112V20.192H104.112L108.576 26.112H107.456L111.792 20.192H114.192V32.112H111.712V22.928L112.704 23.152L108.112 29.072H107.792L103.36 23.152L104.192 22.928V32.112H101.712Z" fill="#FAFAFA"/>
<path d="M119.394 32.112V26.912L115.426 20.192H118.258L121.138 25.248H120.13L122.994 20.192H125.826L121.874 26.896V32.112H119.394Z" fill="#FAFAFA"/>
<path d="M0 1.47333V0.223329H11.6752V1.47333C8.94268 1.47333 7.45223 1.97333 8.44586 2.97333L16.8917 11.4733V4.72333C16.8917 2.72333 15.6497 1.47333 12.4204 1.47333V0.223329H19.6242V32.2233H12.172V31.2233H14.4076C15.8981 31.2233 16.8917 29.7233 16.8917 28.7233V20.4733L7.70064 29.7233C6.95541 30.4733 9.43949 31.2233 10.1847 31.2233H11.4268V32.2233H0.248408V31.2233C2.23567 31.2233 2.48408 30.4733 3.47771 29.7233L14.6561 18.7233H7.45223C5.46497 18.7233 4.71975 19.9733 4.71975 23.4733H3.47771V9.22333H4.47134C4.47134 11.9733 5.46497 13.7233 7.45223 13.7233H15.1529L6.21019 4.72333C3.49615 1.89692 2.73248 1.47333 0 1.47333Z" fill="#FAFAFA"/>
<path d="M39 1.47333V0.223329H27.3248V1.47333C30.0573 1.47333 31.5478 1.97333 30.5541 2.97333L22.1083 11.4733V4.72333C22.1083 2.72333 23.3503 1.47333 26.5796 1.47333V0.223329H19.3758V32.2233H26.828V31.2233H24.5924C23.1019 31.2233 22.1083 29.7233 22.1083 28.7233V20.4733L31.2994 29.7233C32.0446 30.4733 29.5605 31.2233 28.8153 31.2233H27.5732V32.2233H38.7516V31.2233C36.7643 31.2233 36.5159 30.4733 35.5223 29.7233L24.344 18.7233H31.5478C33.535 18.7233 34.2803 19.9733 34.2803 23.4733H35.5223V9.22333H34.5287C34.5287 11.9733 33.535 13.7233 31.5478 13.7233H23.8471L32.7898 4.72333C35.5038 1.89692 36.2675 1.47333 39 1.47333Z" fill="#FAFAFA"/>
</svg>
