<svg width="151" height="34" viewBox="0 0 151 34" fill="none" xmlns="http://www.w3.org/2000/svg">
<path d="M48.056 13.0007V1.08067H56.216V3.24067H50.536V6.26467H55.416V8.42467H50.536V13.0007H48.056Z" fill="#FAFAFA"/>
<path d="M58.0866 13.0007V1.08067H60.5666V10.8407H65.6066V13.0007H58.0866Z" fill="#FAFAFA"/>
<path d="M67.2366 13.0007L71.2686 1.08067H74.5646L78.5966 13.0007H75.8926L75.0926 10.5687H70.7246L69.9246 13.0007H67.2366ZM71.4126 8.40867H74.4046L72.5806 2.77667H73.2526L71.4126 8.40867Z" fill="#FAFAFA"/>
<path d="M81.7548 13.0007L77.6748 1.08067H80.3948L83.4668 10.6487H82.9228L85.9948 1.08067H88.7148L84.6348 13.0007H81.7548Z" fill="#FAFAFA"/>
<path d="M95.6009 13.1927C94.7049 13.1927 93.8729 13.038 93.1049 12.7287C92.3369 12.4193 91.6649 11.9873 91.0889 11.4327C90.5235 10.8673 90.0809 10.2113 89.7609 9.46467C89.4409 8.71801 89.2809 7.90734 89.2809 7.03267C89.2809 6.15801 89.4355 5.34734 89.7449 4.60067C90.0649 3.85401 90.5075 3.20334 91.0729 2.64867C91.6489 2.094 92.3209 1.662 93.0889 1.35267C93.8569 1.04334 94.6942 0.888672 95.6009 0.888672C96.5075 0.888672 97.3449 1.04334 98.1129 1.35267C98.8809 1.662 99.5475 2.094 100.113 2.64867C100.689 3.20334 101.132 3.85401 101.441 4.60067C101.761 5.34734 101.921 6.15801 101.921 7.03267C101.921 7.90734 101.761 8.71801 101.441 9.46467C101.121 10.2113 100.673 10.8673 100.097 11.4327C99.5315 11.9873 98.8649 12.4193 98.0969 12.7287C97.3289 13.038 96.4969 13.1927 95.6009 13.1927ZM95.6009 10.9527C96.1449 10.9527 96.6462 10.8567 97.1049 10.6647C97.5742 10.4727 97.9849 10.206 98.3369 9.86467C98.6889 9.51267 98.9609 9.09667 99.1529 8.61667C99.3449 8.13667 99.4409 7.60867 99.4409 7.03267C99.4409 6.45667 99.3449 5.93401 99.1529 5.46467C98.9609 4.98467 98.6889 4.56867 98.3369 4.21667C97.9849 3.86467 97.5742 3.59801 97.1049 3.41667C96.6462 3.22467 96.1449 3.12867 95.6009 3.12867C95.0569 3.12867 94.5502 3.22467 94.0809 3.41667C93.6222 3.59801 93.2169 3.86467 92.8649 4.21667C92.5129 4.56867 92.2409 4.98467 92.0489 5.46467C91.8569 5.93401 91.7609 6.45667 91.7609 7.03267C91.7609 7.60867 91.8569 8.13667 92.0489 8.61667C92.2409 9.09667 92.5129 9.51267 92.8649 9.86467C93.2169 10.206 93.6222 10.4727 94.0809 10.6647C94.5502 10.8567 95.0569 10.9527 95.6009 10.9527Z" fill="#FAFAFA"/>
<path d="M103.68 13.0007V1.08067H108.24C109.061 1.08067 109.786 1.22467 110.416 1.51267C111.056 1.80067 111.557 2.22734 111.92 2.79267C112.282 3.35801 112.464 4.05667 112.464 4.88867C112.464 5.69934 112.277 6.39267 111.904 6.96867C111.53 7.53401 111.029 7.96067 110.4 8.24867L113.12 13.0007H110.336L107.392 7.73667L108.992 8.68067H106.16V13.0007H103.68ZM106.16 6.52067H108.256C108.608 6.52067 108.912 6.45134 109.168 6.31267C109.424 6.17401 109.621 5.98201 109.76 5.73667C109.909 5.49134 109.984 5.20867 109.984 4.88867C109.984 4.55801 109.909 4.27 109.76 4.02467C109.621 3.77934 109.424 3.58734 109.168 3.44867C108.912 3.31001 108.608 3.24067 108.256 3.24067H106.16V6.52067Z" fill="#FAFAFA"/>
<path d="M119.008 13.1927C118.261 13.1927 117.557 13.0593 116.896 12.7927C116.245 12.5153 115.68 12.126 115.2 11.6247C114.73 11.1233 114.378 10.5313 114.144 9.84867L116.176 8.93667C116.474 9.58734 116.885 10.0993 117.408 10.4727C117.941 10.846 118.528 11.0327 119.168 11.0327C119.509 11.0327 119.802 10.9793 120.048 10.8727C120.293 10.766 120.485 10.622 120.624 10.4407C120.762 10.2487 120.832 10.0247 120.832 9.76867C120.832 9.49134 120.746 9.25667 120.576 9.06467C120.405 8.86201 120.138 8.70201 119.776 8.58467L117.44 7.81667C116.49 7.50734 115.776 7.07001 115.296 6.50467C114.816 5.92867 114.576 5.24067 114.576 4.44067C114.576 3.73667 114.746 3.11801 115.088 2.58467C115.44 2.05134 115.925 1.63534 116.544 1.33667C117.173 1.03801 117.893 0.888672 118.704 0.888672C119.418 0.888672 120.08 1.01134 120.688 1.25667C121.296 1.50201 121.818 1.84867 122.256 2.29667C122.704 2.74467 123.04 3.28334 123.264 3.91267L121.248 4.82467C121.024 4.27001 120.688 3.83801 120.24 3.52867C119.792 3.20867 119.28 3.04867 118.704 3.04867C118.373 3.04867 118.08 3.10201 117.824 3.20867C117.568 3.31534 117.37 3.47001 117.232 3.67267C117.093 3.86467 117.024 4.08867 117.024 4.34467C117.024 4.62201 117.114 4.86734 117.296 5.08067C117.477 5.28334 117.749 5.44334 118.112 5.56067L120.4 6.29667C121.36 6.60601 122.074 7.03801 122.544 7.59267C123.024 8.14734 123.264 8.82467 123.264 9.62467C123.264 10.318 123.082 10.9367 122.72 11.4807C122.357 12.014 121.856 12.4353 121.216 12.7447C120.586 13.0433 119.85 13.1927 119.008 13.1927Z" fill="#FAFAFA"/>
<path d="M133.874 13.1927C132.978 13.1927 132.146 13.038 131.378 12.7287C130.61 12.4193 129.938 11.9873 129.362 11.4327C128.797 10.8673 128.354 10.2113 128.034 9.46467C127.714 8.71801 127.554 7.90734 127.554 7.03267C127.554 6.15801 127.709 5.34734 128.018 4.60067C128.338 3.85401 128.781 3.20334 129.346 2.64867C129.922 2.094 130.594 1.662 131.362 1.35267C132.13 1.04334 132.967 0.888672 133.874 0.888672C134.781 0.888672 135.618 1.04334 136.386 1.35267C137.154 1.662 137.821 2.094 138.386 2.64867C138.962 3.20334 139.405 3.85401 139.714 4.60067C140.034 5.34734 140.194 6.15801 140.194 7.03267C140.194 7.90734 140.034 8.71801 139.714 9.46467C139.394 10.2113 138.946 10.8673 138.37 11.4327C137.805 11.9873 137.138 12.4193 136.37 12.7287C135.602 13.038 134.77 13.1927 133.874 13.1927ZM133.874 10.9527C134.418 10.9527 134.919 10.8567 135.378 10.6647C135.847 10.4727 136.258 10.206 136.61 9.86467C136.962 9.51267 137.234 9.09667 137.426 8.61667C137.618 8.13667 137.714 7.60867 137.714 7.03267C137.714 6.45667 137.618 5.93401 137.426 5.46467C137.234 4.98467 136.962 4.56867 136.61 4.21667C136.258 3.86467 135.847 3.59801 135.378 3.41667C134.919 3.22467 134.418 3.12867 133.874 3.12867C133.33 3.12867 132.823 3.22467 132.354 3.41667C131.895 3.59801 131.49 3.86467 131.138 4.21667C130.786 4.56867 130.514 4.98467 130.322 5.46467C130.13 5.93401 130.034 6.45667 130.034 7.03267C130.034 7.60867 130.13 8.13667 130.322 8.61667C130.514 9.09667 130.786 9.51267 131.138 9.86467C131.49 10.206 131.895 10.4727 132.354 10.6647C132.823 10.8567 133.33 10.9527 133.874 10.9527Z" fill="#FAFAFA"/>
<path d="M142.273 13.0007V1.08067H150.433V3.24067H144.753V6.26467H149.633V8.42467H144.753V13.0007H142.273Z" fill="#FAFAFA"/>
<path d="M47.176 33.0007L51.208 21.0807H54.504L58.536 33.0007H55.832L55.032 30.5687H50.664L49.864 33.0007H47.176ZM51.352 28.4087H54.344L52.52 22.7767H53.192L51.352 28.4087Z" fill="#FAFAFA"/>
<path d="M59.7747 33.0007V21.0807H62.2547V30.8407H67.2948V33.0007H59.7747Z" fill="#FAFAFA"/>
<path d="M73.8763 33.1927C73.0229 33.1927 72.2282 33.038 71.4922 32.7287C70.7669 32.4193 70.1322 31.9873 69.5882 31.4327C69.0442 30.878 68.6176 30.2273 68.3083 29.4807C68.0096 28.734 67.8603 27.918 67.8603 27.0327C67.8603 26.1473 68.0096 25.3313 68.3083 24.5847C68.6069 23.8273 69.0283 23.1767 69.5723 22.6327C70.1163 22.078 70.7509 21.6513 71.4762 21.3527C72.2122 21.0433 73.0123 20.8887 73.8763 20.8887C74.7403 20.8887 75.5136 21.0327 76.1963 21.3207C76.8896 21.6087 77.4763 21.9927 77.9563 22.4727C78.4363 22.9527 78.7776 23.486 78.9802 24.0727L76.7883 25.1287C76.5856 24.5527 76.2282 24.078 75.7162 23.7047C75.2149 23.3207 74.6016 23.1287 73.8763 23.1287C73.1723 23.1287 72.5536 23.294 72.0202 23.6247C71.4869 23.9553 71.0709 24.414 70.7722 25.0007C70.4842 25.5767 70.3402 26.254 70.3402 27.0327C70.3402 27.8113 70.4842 28.494 70.7722 29.0807C71.0709 29.6673 71.4869 30.126 72.0202 30.4567C72.5536 30.7873 73.1723 30.9527 73.8763 30.9527C74.6016 30.9527 75.2149 30.766 75.7162 30.3927C76.2282 30.0087 76.5856 29.5287 76.7883 28.9527L78.9802 30.0087C78.7776 30.5953 78.4363 31.1287 77.9563 31.6087C77.4763 32.0887 76.8896 32.4727 76.1963 32.7607C75.5136 33.0487 74.7403 33.1927 73.8763 33.1927Z" fill="#FAFAFA"/>
<path d="M80.5716 33.0007V21.0807H83.0516V26.2327H87.6916V21.0807H90.1716V33.0007H87.6916V28.3927H83.0516V33.0007H80.5716Z" fill="#FAFAFA"/>
<path d="M92.2904 33.0007V21.0807H100.306V23.2407H94.7704V25.9447H99.9864V28.1047H94.7704V30.8407H100.306V33.0007H92.2904Z" fill="#FAFAFA"/>
<path d="M102.352 33.0007V21.0807H104.752L109.216 27.0007H108.096L112.432 21.0807H114.832V33.0007H112.352V23.8167L113.344 24.0407L108.752 29.9607H108.432L104 24.0407L104.832 23.8167V33.0007H102.352Z" fill="#FAFAFA"/>
<path d="M120.674 33.0007V27.8007L116.706 21.0807H119.538L122.418 26.1367H121.41L124.274 21.0807H127.106L123.154 27.7847V33.0007H120.674Z" fill="#FAFAFA"/>
<path d="M1 2.25067V1.00067H12.6752V2.25067C9.94268 2.25067 8.45223 2.75067 9.44586 3.75067L17.8917 12.2507V5.50067C17.8917 3.50067 16.6497 2.25067 13.4204 2.25067V1.00067H20.6242V33.0007H13.172V32.0007H15.4076C16.8981 32.0007 17.8917 30.5007 17.8917 29.5007V21.2507L8.70064 30.5007C7.95541 31.2507 10.4395 32.0007 11.1847 32.0007H12.4268V33.0007H1.24841V32.0007C3.23567 32.0007 3.48408 31.2507 4.47771 30.5007L15.6561 19.5007H8.45223C6.46497 19.5007 5.71975 20.7507 5.71975 24.2507H4.47771V10.0007H5.47134C5.47134 12.7507 6.46497 14.5007 8.45223 14.5007H16.1529L7.21019 5.50067C4.49615 2.67426 3.73248 2.25067 1 2.25067Z" fill="#FAFAFA"/>
<path d="M40 2.25067V1.00067H28.3248V2.25067C31.0573 2.25067 32.5478 2.75067 31.5541 3.75067L23.1083 12.2507V5.50067C23.1083 3.50067 24.3503 2.25067 27.5796 2.25067V1.00067H20.3758V33.0007H27.828V32.0007H25.5924C24.1019 32.0007 23.1083 30.5007 23.1083 29.5007V21.2507L32.2994 30.5007C33.0446 31.2507 30.5605 32.0007 29.8153 32.0007H28.5732V33.0007H39.7516V32.0007C37.7643 32.0007 37.5159 31.2507 36.5223 30.5007L25.344 19.5007H32.5478C34.535 19.5007 35.2803 20.7507 35.2803 24.2507H36.5223V10.0007H35.5287C35.5287 12.7507 34.535 14.5007 32.5478 14.5007H24.8471L33.7898 5.50067C36.5038 2.67426 37.2675 2.25067 40 2.25067Z" fill="#FAFAFA"/>
<path d="M48.056 13.0007V1.08067H56.216V3.24067H50.536V6.26467H55.416V8.42467H50.536V13.0007H48.056Z" stroke="#FAFAFA"/>
<path d="M58.0866 13.0007V1.08067H60.5666V10.8407H65.6066V13.0007H58.0866Z" stroke="#FAFAFA"/>
<path d="M67.2366 13.0007L71.2686 1.08067H74.5646L78.5966 13.0007H75.8926L75.0926 10.5687H70.7246L69.9246 13.0007H67.2366ZM71.4126 8.40867H74.4046L72.5806 2.77667H73.2526L71.4126 8.40867Z" stroke="#FAFAFA"/>
<path d="M81.7548 13.0007L77.6748 1.08067H80.3948L83.4668 10.6487H82.9228L85.9948 1.08067H88.7148L84.6348 13.0007H81.7548Z" stroke="#FAFAFA"/>
<path d="M95.6009 13.1927C94.7049 13.1927 93.8729 13.038 93.1049 12.7287C92.3369 12.4193 91.6649 11.9873 91.0889 11.4327C90.5235 10.8673 90.0809 10.2113 89.7609 9.46467C89.4409 8.71801 89.2809 7.90734 89.2809 7.03267C89.2809 6.15801 89.4355 5.34734 89.7449 4.60067C90.0649 3.85401 90.5075 3.20334 91.0729 2.64867C91.6489 2.094 92.3209 1.662 93.0889 1.35267C93.8569 1.04334 94.6942 0.888672 95.6009 0.888672C96.5075 0.888672 97.3449 1.04334 98.1129 1.35267C98.8809 1.662 99.5475 2.094 100.113 2.64867C100.689 3.20334 101.132 3.85401 101.441 4.60067C101.761 5.34734 101.921 6.15801 101.921 7.03267C101.921 7.90734 101.761 8.71801 101.441 9.46467C101.121 10.2113 100.673 10.8673 100.097 11.4327C99.5315 11.9873 98.8649 12.4193 98.0969 12.7287C97.3289 13.038 96.4969 13.1927 95.6009 13.1927ZM95.6009 10.9527C96.1449 10.9527 96.6462 10.8567 97.1049 10.6647C97.5742 10.4727 97.9849 10.206 98.3369 9.86467C98.6889 9.51267 98.9609 9.09667 99.1529 8.61667C99.3449 8.13667 99.4409 7.60867 99.4409 7.03267C99.4409 6.45667 99.3449 5.93401 99.1529 5.46467C98.9609 4.98467 98.6889 4.56867 98.3369 4.21667C97.9849 3.86467 97.5742 3.59801 97.1049 3.41667C96.6462 3.22467 96.1449 3.12867 95.6009 3.12867C95.0569 3.12867 94.5502 3.22467 94.0809 3.41667C93.6222 3.59801 93.2169 3.86467 92.8649 4.21667C92.5129 4.56867 92.2409 4.98467 92.0489 5.46467C91.8569 5.93401 91.7609 6.45667 91.7609 7.03267C91.7609 7.60867 91.8569 8.13667 92.0489 8.61667C92.2409 9.09667 92.5129 9.51267 92.8649 9.86467C93.2169 10.206 93.6222 10.4727 94.0809 10.6647C94.5502 10.8567 95.0569 10.9527 95.6009 10.9527Z" stroke="#FAFAFA"/>
<path d="M103.68 13.0007V1.08067H108.24C109.061 1.08067 109.786 1.22467 110.416 1.51267C111.056 1.80067 111.557 2.22734 111.92 2.79267C112.282 3.35801 112.464 4.05667 112.464 4.88867C112.464 5.69934 112.277 6.39267 111.904 6.96867C111.53 7.53401 111.029 7.96067 110.4 8.24867L113.12 13.0007H110.336L107.392 7.73667L108.992 8.68067H106.16V13.0007H103.68ZM106.16 6.52067H108.256C108.608 6.52067 108.912 6.45134 109.168 6.31267C109.424 6.17401 109.621 5.98201 109.76 5.73667C109.909 5.49134 109.984 5.20867 109.984 4.88867C109.984 4.55801 109.909 4.27 109.76 4.02467C109.621 3.77934 109.424 3.58734 109.168 3.44867C108.912 3.31001 108.608 3.24067 108.256 3.24067H106.16V6.52067Z" stroke="#FAFAFA"/>
<path d="M119.008 13.1927C118.261 13.1927 117.557 13.0593 116.896 12.7927C116.245 12.5153 115.68 12.126 115.2 11.6247C114.73 11.1233 114.378 10.5313 114.144 9.84867L116.176 8.93667C116.474 9.58734 116.885 10.0993 117.408 10.4727C117.941 10.846 118.528 11.0327 119.168 11.0327C119.509 11.0327 119.802 10.9793 120.048 10.8727C120.293 10.766 120.485 10.622 120.624 10.4407C120.762 10.2487 120.832 10.0247 120.832 9.76867C120.832 9.49134 120.746 9.25667 120.576 9.06467C120.405 8.86201 120.138 8.70201 119.776 8.58467L117.44 7.81667C116.49 7.50734 115.776 7.07001 115.296 6.50467C114.816 5.92867 114.576 5.24067 114.576 4.44067C114.576 3.73667 114.746 3.11801 115.088 2.58467C115.44 2.05134 115.925 1.63534 116.544 1.33667C117.173 1.03801 117.893 0.888672 118.704 0.888672C119.418 0.888672 120.08 1.01134 120.688 1.25667C121.296 1.50201 121.818 1.84867 122.256 2.29667C122.704 2.74467 123.04 3.28334 123.264 3.91267L121.248 4.82467C121.024 4.27001 120.688 3.83801 120.24 3.52867C119.792 3.20867 119.28 3.04867 118.704 3.04867C118.373 3.04867 118.08 3.10201 117.824 3.20867C117.568 3.31534 117.37 3.47001 117.232 3.67267C117.093 3.86467 117.024 4.08867 117.024 4.34467C117.024 4.62201 117.114 4.86734 117.296 5.08067C117.477 5.28334 117.749 5.44334 118.112 5.56067L120.4 6.29667C121.36 6.60601 122.074 7.03801 122.544 7.59267C123.024 8.14734 123.264 8.82467 123.264 9.62467C123.264 10.318 123.082 10.9367 122.72 11.4807C122.357 12.014 121.856 12.4353 121.216 12.7447C120.586 13.0433 119.85 13.1927 119.008 13.1927Z" stroke="#FAFAFA"/>
<path d="M133.874 13.1927C132.978 13.1927 132.146 13.038 131.378 12.7287C130.61 12.4193 129.938 11.9873 129.362 11.4327C128.797 10.8673 128.354 10.2113 128.034 9.46467C127.714 8.71801 127.554 7.90734 127.554 7.03267C127.554 6.15801 127.709 5.34734 128.018 4.60067C128.338 3.85401 128.781 3.20334 129.346 2.64867C129.922 2.094 130.594 1.662 131.362 1.35267C132.13 1.04334 132.967 0.888672 133.874 0.888672C134.781 0.888672 135.618 1.04334 136.386 1.35267C137.154 1.662 137.821 2.094 138.386 2.64867C138.962 3.20334 139.405 3.85401 139.714 4.60067C140.034 5.34734 140.194 6.15801 140.194 7.03267C140.194 7.90734 140.034 8.71801 139.714 9.46467C139.394 10.2113 138.946 10.8673 138.37 11.4327C137.805 11.9873 137.138 12.4193 136.37 12.7287C135.602 13.038 134.77 13.1927 133.874 13.1927ZM133.874 10.9527C134.418 10.9527 134.919 10.8567 135.378 10.6647C135.847 10.4727 136.258 10.206 136.61 9.86467C136.962 9.51267 137.234 9.09667 137.426 8.61667C137.618 8.13667 137.714 7.60867 137.714 7.03267C137.714 6.45667 137.618 5.93401 137.426 5.46467C137.234 4.98467 136.962 4.56867 136.61 4.21667C136.258 3.86467 135.847 3.59801 135.378 3.41667C134.919 3.22467 134.418 3.12867 133.874 3.12867C133.33 3.12867 132.823 3.22467 132.354 3.41667C131.895 3.59801 131.49 3.86467 131.138 4.21667C130.786 4.56867 130.514 4.98467 130.322 5.46467C130.13 5.93401 130.034 6.45667 130.034 7.03267C130.034 7.60867 130.13 8.13667 130.322 8.61667C130.514 9.09667 130.786 9.51267 131.138 9.86467C131.49 10.206 131.895 10.4727 132.354 10.6647C132.823 10.8567 133.33 10.9527 133.874 10.9527Z" stroke="#FAFAFA"/>
<path d="M142.273 13.0007V1.08067H150.433V3.24067H144.753V6.26467H149.633V8.42467H144.753V13.0007H142.273Z" stroke="#FAFAFA"/>
<path d="M47.176 33.0007L51.208 21.0807H54.504L58.536 33.0007H55.832L55.032 30.5687H50.664L49.864 33.0007H47.176ZM51.352 28.4087H54.344L52.52 22.7767H53.192L51.352 28.4087Z" stroke="#FAFAFA"/>
<path d="M59.7747 33.0007V21.0807H62.2547V30.8407H67.2948V33.0007H59.7747Z" stroke="#FAFAFA"/>
<path d="M73.8763 33.1927C73.0229 33.1927 72.2282 33.038 71.4922 32.7287C70.7669 32.4193 70.1322 31.9873 69.5882 31.4327C69.0442 30.878 68.6176 30.2273 68.3083 29.4807C68.0096 28.734 67.8603 27.918 67.8603 27.0327C67.8603 26.1473 68.0096 25.3313 68.3083 24.5847C68.6069 23.8273 69.0283 23.1767 69.5723 22.6327C70.1163 22.078 70.7509 21.6513 71.4762 21.3527C72.2122 21.0433 73.0123 20.8887 73.8763 20.8887C74.7403 20.8887 75.5136 21.0327 76.1963 21.3207C76.8896 21.6087 77.4763 21.9927 77.9563 22.4727C78.4363 22.9527 78.7776 23.486 78.9802 24.0727L76.7883 25.1287C76.5856 24.5527 76.2282 24.078 75.7162 23.7047C75.2149 23.3207 74.6016 23.1287 73.8763 23.1287C73.1723 23.1287 72.5536 23.294 72.0202 23.6247C71.4869 23.9553 71.0709 24.414 70.7722 25.0007C70.4842 25.5767 70.3402 26.254 70.3402 27.0327C70.3402 27.8113 70.4842 28.494 70.7722 29.0807C71.0709 29.6673 71.4869 30.126 72.0202 30.4567C72.5536 30.7873 73.1723 30.9527 73.8763 30.9527C74.6016 30.9527 75.2149 30.766 75.7162 30.3927C76.2282 30.0087 76.5856 29.5287 76.7883 28.9527L78.9802 30.0087C78.7776 30.5953 78.4363 31.1287 77.9563 31.6087C77.4763 32.0887 76.8896 32.4727 76.1963 32.7607C75.5136 33.0487 74.7403 33.1927 73.8763 33.1927Z" stroke="#FAFAFA"/>
<path d="M80.5716 33.0007V21.0807H83.0516V26.2327H87.6916V21.0807H90.1716V33.0007H87.6916V28.3927H83.0516V33.0007H80.5716Z" stroke="#FAFAFA"/>
<path d="M92.2904 33.0007V21.0807H100.306V23.2407H94.7704V25.9447H99.9864V28.1047H94.7704V30.8407H100.306V33.0007H92.2904Z" stroke="#FAFAFA"/>
<path d="M102.352 33.0007V21.0807H104.752L109.216 27.0007H108.096L112.432 21.0807H114.832V33.0007H112.352V23.8167L113.344 24.0407L108.752 29.9607H108.432L104 24.0407L104.832 23.8167V33.0007H102.352Z" stroke="#FAFAFA"/>
<path d="M120.674 33.0007V27.8007L116.706 21.0807H119.538L122.418 26.1367H121.41L124.274 21.0807H127.106L123.154 27.7847V33.0007H120.674Z" stroke="#FAFAFA"/>
<path d="M1 2.25067V1.00067H12.6752V2.25067C9.94268 2.25067 8.45223 2.75067 9.44586 3.75067L17.8917 12.2507V5.50067C17.8917 3.50067 16.6497 2.25067 13.4204 2.25067V1.00067H20.6242V33.0007H13.172V32.0007H15.4076C16.8981 32.0007 17.8917 30.5007 17.8917 29.5007V21.2507L8.70064 30.5007C7.95541 31.2507 10.4395 32.0007 11.1847 32.0007H12.4268V33.0007H1.24841V32.0007C3.23567 32.0007 3.48408 31.2507 4.47771 30.5007L15.6561 19.5007H8.45223C6.46497 19.5007 5.71975 20.7507 5.71975 24.2507H4.47771V10.0007H5.47134C5.47134 12.7507 6.46497 14.5007 8.45223 14.5007H16.1529L7.21019 5.50067C4.49615 2.67426 3.73248 2.25067 1 2.25067Z" stroke="#FAFAFA"/>
<path d="M40 2.25067V1.00067H28.3248V2.25067C31.0573 2.25067 32.5478 2.75067 31.5541 3.75067L23.1083 12.2507V5.50067C23.1083 3.50067 24.3503 2.25067 27.5796 2.25067V1.00067H20.3758V33.0007H27.828V32.0007H25.5924C24.1019 32.0007 23.1083 30.5007 23.1083 29.5007V21.2507L32.2994 30.5007C33.0446 31.2507 30.5605 32.0007 29.8153 32.0007H28.5732V33.0007H39.7516V32.0007C37.7643 32.0007 37.5159 31.2507 36.5223 30.5007L25.344 19.5007H32.5478C34.535 19.5007 35.2803 20.7507 35.2803 24.2507H36.5223V10.0007H35.5287C35.5287 12.7507 34.535 14.5007 32.5478 14.5007H24.8471L33.7898 5.50067C36.5038 2.67426 37.2675 2.25067 40 2.25067Z" stroke="#FAFAFA"/>
</svg>
