<svg width="34" height="28" viewBox="0 0 34 28" fill="none" xmlns="http://www.w3.org/2000/svg">
<path d="M1 2.01911V1H10.5796V2.01911C8.33758 2.01911 7.11465 2.42675 7.92994 3.24204L14.8599 10.172V4.66879C14.8599 3.03822 13.8408 2.01911 11.1911 2.01911V1H17.1019V27.0892H10.9873V26.2739H12.8217C14.0446 26.2739 14.8599 25.051 14.8599 24.2357V17.5096L7.31847 25.051C6.70701 25.6624 8.74522 26.2739 9.35669 26.2739H10.3758V27.0892H1.20382V26.2739C2.83439 26.2739 3.03822 25.6624 3.8535 25.051L13.0255 16.0828H7.11465C5.48408 16.0828 4.87261 17.1019 4.87261 19.9554H3.8535V8.33758H4.66879C4.66879 10.5796 5.48408 12.0064 7.11465 12.0064H13.4331L6.09554 4.66879C3.86864 2.36445 3.24204 2.01911 1 2.01911Z" fill="#313131" stroke="#313131"/>
<path d="M33 2.01911V1H23.4204V2.01911C25.6624 2.01911 26.8854 2.42675 26.0701 3.24204L19.1401 10.172V4.66879C19.1401 3.03822 20.1592 2.01911 22.8089 2.01911V1H16.8981V27.0892H23.0127V26.2739H21.1783C19.9554 26.2739 19.1401 25.051 19.1401 24.2357V17.5096L26.6815 25.051C27.293 25.6624 25.2548 26.2739 24.6433 26.2739H23.6242V27.0892H32.7962V26.2739C31.1656 26.2739 30.9618 25.6624 30.1465 25.051L20.9745 16.0828H26.8854C28.5159 16.0828 29.1274 17.1019 29.1274 19.9554H30.1465V8.33758H29.3312C29.3312 10.5796 28.5159 12.0064 26.8854 12.0064H20.5669L27.9045 4.66879C30.1314 2.36445 30.758 2.01911 33 2.01911Z" fill="#313131" stroke="#313131"/>
</svg>
